PathFileType	4	(X/Y/Z)	..\data\2014029\dynamic\2014029_C5_05.trc
DataRate	CameraRate	NumFrames	NumMarkers	Units	OrigDataRate	OrigDataStartFrame	OrigNumFrames
100.000000	100.000000	4	52	mm	100.000000	150	172
Frame#	Time	L_IAS			L_IPS			R_IPS			R_IAS			L_FTC			L_FLE			L_FME			L_FAX			L_TTC			L_FAL			L_TAM			L_FCC			L_FM1			L_FM2			L_FM5			R_FTC			R_FLE			R_FME			R_FAX			R_TTC			R_FAL			R_TAM			R_FCC			R_FM1			R_FM2			R_FM5			CV7			TV10			SXS			SJN			L_SIA			L_SRS			L_SAA			L_SAE			L_HLE			L_HME			L_UOA			L_RSP			L_UHE			L_HM2			L_HM5			R_SIA			R_SRS			R_SAA			R_SAE			R_HLE			R_HME			R_UOA			R_RSP			R_UHE			R_HM2			R_HM5			
		X1	Y1	Z1	X2	Y2	Z2	X3	Y3	Z3	X4	Y4	Z4	X5	Y5	Z5	X6	Y6	Z6	X7	Y7	Z7	X8	Y8	Z8	X9	Y9	Z9	X10	Y10	Z10	X11	Y11	Z11	X12	Y12	Z12	X13	Y13	Z13	X14	Y14	Z14	X15	Y15	Z15	X16	Y16	Z16	X17	Y17	Z17	X18	Y18	Z18	X19	Y19	Z19	X20	Y20	Z20	X21	Y21	Z21	X22	Y22	Z22	X23	Y23	Z23	X24	Y24	Z24	X25	Y25	Z25	X26	Y26	Z26	X27	Y27	Z27	X28	Y28	Z28	X29	Y29	Z29	X30	Y30	Z30	X31	Y31	Z31	X32	Y32	Z32	X33	Y33	Z33	X34	Y34	Z34	X35	Y35	Z35	X36	Y36	Z36	X37	Y37	Z37	X38	Y38	Z38	X39	Y39	Z39	X40	Y40	Z40	X41	Y41	Z41	X42	Y42	Z42	X43	Y43	Z43	X44	Y44	Z44	X45	Y45	Z45	X46	Y46	Z46	X47	Y47	Z47	X48	Y48	Z48	X49	Y49	Z49	X50	Y50	Z50	X51	Y51	Z51	X52	Y52	Z52	

151	1.5	725.6607666015626	1049.491333007813	114.0461349487306	520.8525390625001	1040.308837890625	189.8708038330079	523.9551391601564	1045.474609375	290.6401672363282	727.5833740234376	1055.274536132813	364.8425292968752	656.5139160156251	954.8891601562502	48.06850051879892	823.8289794921877	535.5974121093751	71.78997039794933	849.6668090820315	507.9707031250001	192.9498443603517	813.404724121094	470.3703918457032	62.5849952697755	887.7144775390627	460.0579223632814	115.6703720092775	769.7728271484377	99.01626586914065	84.39025115966808	819.4829711914065	106.7354965209961	174.9275054931642	728.5719604492189	35.1815299987793	141.7129516601564	942.5169677734377	33.65200424194337	133.1109313964845	922.5388793945315	50.20795059204103	92.41230010986341	872.829040527344	26.94337463378907	45.30493927001964	613.8930664062501	943.5024414062502	428.6307678222658	586.1979980468751	504.3903808593751	382.730926513672	573.4734497070314	490.7401123046876	254.6760711669923	557.0350952148439	438.7849731445314	384.080047607422	625.7061767578126	431.8175659179689	321.466766357422	498.5400390625001	75.88008117675783	311.2314453125001	523.9002685546876	89.41403198242189	211.979705810547	445.9908447265626	22.13841247558594	264.3385620117189	662.2887573242189	14.53063011169434	225.9795532226564	663.3437500000001	27.90377616882325	287.3213195800782	628.0671997070314	7.659199714660646	343.976531982422	614.3458251953126	1581.173095703125	235.8833312988283	524.4958496093751	1316.342895507813	242.6526641845704	773.7534790039065	1285.230834960938	231.5337829589845	741.9002075195314	1479.601928710938	234.712844848633	494.8087158203126	1355.92431640625	147.0255279541016	540.8099365234376	1510.033569335938	141.1974487304688	586.2321777343751	1502.051147460938	25.75823402404793	642.9019165039064	1501.430419921875	12.70176124572762	567.5067749023439	1144.818603515625	-46.52136993408197	555.8590087890626	1143.7890625	48.97993087768563	537.0031127929689	1135.356323242188	5.21726846694953	647.4086914062501	865.6934204101565	-22.56373977661125	569.9403076171876	882.8770751953127	-65.7881240844726	664.1805419921876	780.023620605469	-22.26832962036125	564.8693237304689	796.2282714843752	-77.25263214111322	509.7361450195313	1358.04296875	342.3517456054689	551.3071899414064	1503.681518554688	343.5949707031251	604.4806518554689	1504.3798828125	448.1859741210939	657.6521606445314	1510.709716796875	457.3543090820314	646.272216796875	1156.046264648438	539.7205200195315	621.7727661132814	1135.76611328125	451.766571044922	614.7778930664062	1129.913452148438	511.1050415039064	833.7071533203126	937.1843872070315	503.1071472167971	758.7845458984375	917.5498657226565	554.6434326171877	885.2772216796876	861.5288696289065	502.4746093750002	784.0906372070314	831.9541015625002	558.7817382812502	
152	1.51	739.5050048828126	1047.907470703125	114.2473678588868	534.2473754882814	1038.188110351563	188.8704223632813	536.4425659179689	1043.730834960938	289.5354309082032	739.3121948242189	1053.67431640625	365.050994873047	670.4012451171876	953.1857910156252	47.89919662475595	836.6819458007815	532.4667358398439	71.67629241943371	862.2186279296877	505.4727478027345	193.1580047607424	829.094909667969	466.6313781738282	62.58822250366222	903.7751464843752	460.107147216797	115.7895660400392	810.9111328125002	93.43386840820314	83.67481994628918	860.1111450195315	104.0741424560547	174.0614013671876	773.6071777343752	27.9239730834961	141.5152282714845	987.2297973632815	37.27332305908204	132.1837615966798	966.4210205078127	52.43025970458986	91.4079513549806	918.0252075195315	26.43831443786622	44.61740875244153	624.9967651367189	942.4025878906252	428.2877807617189	592.2451171875001	504.1390380859376	382.1750793457032	579.7325439453126	490.7197875976564	254.1163787841798	562.0777587890626	438.913787841797	383.4996948242189	630.8375244140626	430.9857177734376	321.1580505371095	498.9333801269532	76.54155731201173	310.6243286132814	524.8511962890626	89.7043914794922	211.2926330566407	446.1996765136719	23.01479721069336	263.4557189941407	662.4684448242189	14.35771656036377	225.9696502685548	663.4182739257814	27.73444557189942	287.2903442382814	627.8886718750001	7.619895458221437	343.8751525878907	627.5114746093751	1579.248413085938	235.1041412353517	537.1018066406251	1314.683837890625	241.7101898193361	786.480651855469	1283.218872070313	231.964553833008	754.9371948242189	1477.64453125	234.6360015869142	507.7088623046876	1354.214599609375	146.7579498291016	554.2033691406251	1508.199584960938	140.6414031982423	599.7653198242189	1499.953735351563	25.45219421386727	656.3582153320314	1499.109619140625	12.2872848510743	575.7411499023439	1143.544921875	-45.69548416137689	565.3157348632814	1142.731201171875	49.75184249877938	545.8102416992189	1134.93212890625	6.335360050201484	648.6000366210939	862.588073730469	-22.67152976989739	570.9951782226564	881.8570556640627	-65.19246673583979	662.7932128906251	776.334167480469	-22.45547294616691	563.3823242187501	795.3499145507815	-76.68705749511713	522.3756713867189	1356.5078125	342.0454406738282	563.8768920898439	1502.381225585938	343.1970520019532	617.1120605468751	1503.072387695313	447.8237609863283	670.2937011718751	1509.443359375	456.9695739746095	661.4363403320312	1155.041259765625	541.1968994140627	636.2033081054689	1134.29296875	453.7590942382814	629.9169921875	1128.342651367188	512.9503173828127	853.0989379882814	940.2248535156252	503.1454162597659	779.0373535156251	918.8596191406252	555.137634277344	906.4691162109376	865.8836059570315	502.1200256347659	806.3246459960939	833.8288574218752	558.8898925781252	
153	1.52	753.4234619140626	1046.123413085938	114.452980041504	547.7591552734376	1035.821166992188	187.7611389160157	548.9784545898439	1041.800048828125	288.3048706054689	751.0305175781251	1052.045532226563	365.2576293945314	684.4307861328126	951.193542480469	47.72410583496103	849.114440917969	529.0043945312501	71.43704986572277	874.3734130859377	502.6358642578126	193.2787475585939	844.296325683594	462.7706909179689	62.56478500366223	919.2539062500002	459.9899902343751	115.8306198120119	851.1854248046877	89.29061889648439	83.10714721679699	899.726745605469	102.7898330688477	173.3582916259767	817.8212890625002	22.36631011962891	141.4719848632814	1030.484985351563	42.12829589843751	131.7989196777345	1009.096313476563	55.7859573364258	90.87529754638686	962.2127685546877	27.17829132080079	44.3666801452638	636.0947265625001	941.2718505859377	427.8478393554689	598.4455566406251	503.8963623046876	381.6241760253907	586.2305297851564	490.6491699218751	253.5513458251955	567.2650146484376	439.0747070312501	382.9154357910157	636.1312866210939	430.1498107910157	320.883270263672	499.3624267578126	77.31336212158205	310.0094604492189	525.8927001953126	90.0894012451172	210.6065063476564	446.4253540039063	24.07687377929688	262.556610107422	662.6151123046876	14.18717670440674	225.9683837890626	663.4561157226564	27.56955337524415	287.2512207031251	627.6594848632814	7.569178104400637	343.757049560547	640.6852416992189	1577.161987304688	234.2601013183595	549.7084960937501	1312.86474609375	240.592498779297	799.2102661132815	1281.0634765625	232.3138122558595	767.9715576171876	1475.542602539063	234.4836425781251	520.6745605468751	1352.295043945313	146.3585357666016	567.5949707031251	1506.201293945313	140.027572631836	613.2857666015626	1497.788452148438	25.09289932250985	669.8044433593751	1496.746826171875	11.8065195083619	584.1907958984376	1142.298828125	-44.9783859252929	574.8574829101564	1141.683715820313	50.46103668212899	554.8057861328126	1134.475341796875	7.346229076385567	650.1281738281251	859.7188110351565	-22.77746963500969	572.4760131835939	881.0501098632815	-64.67290496826166	661.7562255859376	772.9655761718752	-22.5614986419677	562.3530883789064	794.7509765625002	-76.11846160888666	534.9920043945314	1354.740844726563	341.5434875488282	576.4420166015626	1500.880004882813	342.6923217773439	629.7079467773439	1501.56982421875	447.3859863281252	682.8978271484376	1507.969116210938	456.5159606933595	676.4228515625	1153.896118164063	542.6091918945315	650.4932861328126	1132.654541015625	455.7014160156252	644.9658203125	1126.618408203125	514.7316894531252	872.1745605468751	943.1055297851565	503.1157531738284	799.0264892578126	920.0888671875002	555.6007080078127	927.2645874023439	870.0852050781252	501.7062683105471	828.2539672851564	835.6728515625002	559.0159912109377	
154	1.53	767.4127807617189	1044.158813476563	114.6708221435548	561.3671264648439	1033.246459960938	186.5237274169923	561.5640258789064	1039.7021484375	286.9362792968751	762.7507324218751	1050.4150390625	365.4718017578127	698.6246337890626	948.937927246094	47.5334014892579	861.292175292969	525.3474731445314	71.12070465087902	886.300720214844	499.5943908691407	193.3456420898439	859.1426391601565	458.9055175781251	62.53728485107434	934.2612304687502	459.7705383300782	115.8398437500001	890.2309570312502	86.51877593994142	82.68557739257825	937.9461059570315	102.7821044921875	172.8326568603517	860.7574462890627	18.39043045043946	141.5435943603517	1071.943603515625	48.12528228759767	131.9920196533205	1050.232055664063	60.20079803466798	90.84920501708999	1005.049682617188	29.08883476257325	44.57611846923841	647.1798706054689	940.121765136719	427.3045959472658	604.8756713867189	503.6602783203126	381.0828857421876	593.0336914062501	490.5212402343751	252.982879638672	572.6790161132814	439.2659606933595	382.335418701172	641.6509399414064	429.3066406250001	320.635711669922	499.8602600097657	78.21612548828126	309.4147949218751	527.0182495117189	90.58341217041017	209.9523315429689	446.6719970703126	25.35550117492676	261.6914062500001	662.7277221679689	14.03061103820801	225.9726867675783	663.4616088867189	27.42072105407716	287.2041320800782	627.3913574218751	7.51869058609009	343.6247863769532	653.8517456054689	1574.953369140625	233.3691406250001	562.3267211914064	1310.911254882813	239.3118591308595	811.9514770507815	1278.795532226563	232.5760955810548	781.0066528320315	1473.324340820313	234.2461395263673	533.7090454101564	1350.180786132813	145.8269195556641	580.9809570312501	1504.057739257813	139.3601989746095	626.7765502929689	1495.569213867188	24.67682647705087	683.2277832031251	1494.3603515625	11.25169754028329	592.8652954101564	1141.082641601563	-44.37331008911126	584.5123291015626	1140.644165039063	51.09003448486337	564.0039062500001	1133.984619140625	8.237128257751536	652.0367431640626	857.0726318359377	-22.90638732910149	574.4290161132814	880.4390869140627	-64.24597167968744	661.1098022460939	769.9036254882815	-22.60245323181145	561.8164062500001	794.411560058594	-75.55011749267572	547.5938110351564	1352.771850585938	340.8529357910157	589.0214843750001	1499.196411132813	342.0811767578126	642.2852172851564	1499.895141601563	446.872039794922	695.4825439453126	1506.310302734375	455.9894104003908	691.2434692382812	1152.621337890625	543.9331054687502	664.6550903320314	1130.861694335938	457.559051513672	659.9241333007812	1124.758056640625	516.4241333007815	890.9058837890626	945.810485839844	503.0161437988284	818.7169799804689	921.2327270507815	556.0280761718752	947.6363525390626	874.116149902344	501.2430725097659	849.8404541015626	837.4742431640627	559.1629028320315	
